<?xml version="1.0" standalone="yes"?>
<svg xmlns="http://www.w3.org/2000/svg" width="4168" height="4168">
<path style="fill:#ffffff; stroke:none;" d="M0 0L0 4168L4168 4168L4168 0L0 0z"/>
<path style="fill:#fdb52b; stroke:none;" d="M2072 57.4253C2056.39 59.5503 2041.39 64.1831 2028 72.6953C2016.33 80.1118 2006.19 89.585 1998.35 101C1962.91 152.612 1980.4 226.733 2037 255.031C2056.47 264.767 2078.61 267.6 2100 264.718C2114.11 262.817 2127.92 257.678 2140 250.186C2216.55 202.721 2197.46 79.9243 2109 59.6514C2097.11 56.9268 2084.15 55.772 2072 57.4253M995 328.428C979.783 330.608 964.976 335.499 952 343.864C940.392 351.349 930.646 360.685 922.721 372C870.233 446.951 935.898 548.477 1025 535.572C1039.61 533.456 1053.68 528.141 1066 519.996C1140.54 470.708 1121.48 349.268 1032 330.211C1020.22 327.701 1006.99 326.711 995 328.428M3147 328.425C3131.79 330.497 3116.98 334.904 3104 343.345C3091.14 351.713 3080.03 362.032 3071.7 375C3039.1 425.704 3056.79 496.033 3110 524.69C3129.87 535.393 3152.85 538.541 3175 535.714C3188.8 533.954 3202.06 529.062 3214 521.985C3225.39 515.235 3235.98 505.657 3243.84 495C3296.84 423.182 3237.16 316.148 3147 328.425M1256 1597C1261.93 1594.11 1266.35 1587.65 1271 1583C1279.51 1574.48 1288.48 1566.5 1297 1558C1319.12 1535.91 1343.6 1515.72 1368 1496.2C1444.16 1435.27 1527.39 1384.88 1616 1344.31C1931.34 1199.92 2314.8 1212.24 2620 1377.31C2690.16 1415.25 2756.66 1459.38 2818 1510.44C2838.19 1527.24 2858.2 1544.67 2877 1563.01C2888.37 1574.11 2899.01 1587.85 2912 1597C2919.68 1569.68 2923.83 1540.83 2929.4 1513C2940.14 1459.31 2950.82 1405.56 2962.21 1352C2999.42 1176.99 3034.29 1001.4 3069.6 826C3078.06 783.974 3086.99 742.037 3095.4 700C3099.33 680.338 3106.56 659.096 3106.95 639C3107.43 613.794 3087.27 589.881 3062 587.174C3036.67 584.459 3019.55 598.748 3000 612.576C2974.78 630.407 2949.21 647.738 2924 665.576C2845.02 721.454 2765.26 776.241 2686 831.72C2660.69 849.439 2635.71 870.338 2608 884.191C2566.38 905 2516.4 907.834 2473 890.797C2408.49 865.471 2381.99 809.531 2349.58 753C2296.05 659.634 2244.1 565.366 2190.58 472C2175.35 445.433 2160.05 418.841 2145.31 392C2128.58 361.543 2109.17 330.228 2069 341.159C2047.21 347.089 2038.01 365.901 2027.72 384C2008.79 417.291 1989.8 450.561 1971.14 484C1919.81 575.963 1867.8 667.631 1815.42 759C1784.87 812.293 1758.7 865.772 1698 889.796C1656.61 906.178 1608.77 906.358 1568 887.691C1535.64 872.875 1507.04 849.046 1478 828.72C1400.4 774.402 1322.87 719.952 1245 666.025C1222.28 650.291 1199.56 634.537 1177 618.576C1162.89 608.593 1148.26 595.707 1132 589.467C1111.51 581.603 1085.03 589.438 1072.16 607.001C1054.03 631.737 1064.87 663.82 1071.12 691C1084.36 748.613 1095 807.031 1106.6 865C1140.64 1035.14 1176.25 1204.96 1210.8 1375C1220.22 1421.33 1229.38 1467.75 1239.21 1514C1245.03 1541.37 1252.42 1569.25 1256 1597z"/>
<path style="fill:#01b969; stroke:none;" d="M1924 3803C1768.68 3815.26 1614.84 3825.44 1464 3868.86C1429.2 3878.88 1391.58 3892.94 1363 3915.67C1347.85 3927.71 1335.31 3944.79 1340.24 3965C1345.66 3987.22 1368.59 4000.89 1387 4011.42C1436.25 4039.6 1495.87 4053.58 1551 4065C1773.76 4111.12 2006.42 4118.88 2233 4108.96C2387.22 4102.21 2546.02 4089 2695 4045.42C2731.04 4034.88 2769.33 4022.12 2800 3999.85C2813.33 3990.16 2828.16 3976.7 2828.96 3959C2829.9 3938.33 2816.65 3924.11 2801 3912.38C2771.79 3890.48 2733.82 3877.13 2699 3867.14C2551.8 3824.94 2396.32 3809.54 2244 3803C2459.36 3587.64 2654.91 3343.56 2806.58 3079C2914.08 2891.48 3003.97 2680 3018.91 2462C3028.41 2323.38 3009.16 2182.7 2958.2 2053C2910.3 1931.08 2837.27 1813.62 2741 1723.91C2634.73 1624.87 2514.27 1545.84 2375 1501.34C2041.79 1394.88 1669.18 1481.82 1421 1730C1375.59 1775.41 1333.52 1825.69 1299.05 1880C1237.88 1976.39 1193.23 2080.4 1168.58 2192C1143.52 2305.42 1140.18 2424.38 1158.59 2539C1189.92 2734.08 1269.05 2917.55 1367 3088C1473.84 3273.92 1603.83 3446.28 1744.28 3608C1802.34 3674.85 1864.08 3737.94 1924 3803z"/>
<path style="fill:#ffffff; stroke:none;" d="M2076 1924.52C2052.77 1929.47 2046.35 1954.14 2037.69 1973C2016.44 2019.29 1994.86 2065.47 1974.14 2112C1888.29 2304.77 1794.75 2494.31 1711 2688C1688.62 2739.75 1664.16 2790.74 1640.69 2842C1631.41 2862.28 1615.66 2885.27 1630.1 2907C1644.91 2929.27 1667.93 2924.28 1688 2914.25C1731.27 2892.61 1773.73 2869.39 1817 2847.75C1881.15 2815.68 1946.52 2783.79 2009 2748.58C2024.64 2739.76 2040.94 2731.78 2057 2723.75C2069.11 2717.7 2080.13 2711.7 2094 2715.49C2104.27 2718.3 2113.57 2725 2123 2729.75C2143.77 2740.21 2164.23 2751.29 2185 2761.75C2258.03 2798.53 2329.87 2837.68 2403 2874.25C2427.13 2886.31 2451.03 2898.88 2475 2911.26C2488.96 2918.46 2501.73 2926.81 2518 2921.96C2538.73 2915.77 2549.46 2892.91 2541.93 2873C2519.67 2814.05 2488.78 2757.57 2463.14 2700C2373.71 2499.19 2276.23 2301.77 2189 2100C2168.52 2052.62 2146.18 2005.93 2124.69 1959C2115.21 1938.28 2102.14 1918.94 2076 1924.52z"/>
</svg>
